<svg width="1024" height="1024" viewBox="0 0 1024 1024" fill="none" xmlns="http://www.w3.org/2000/svg">
<g filter="url(#filter0_ii_311_925)">
<path d="M516.825 138C682.541 138 816.704 272.243 817 437.715C817 552.862 672.021 752.677 583.612 863.679C579.466 868.859 574.875 873.447 569.84 877.443C533.112 906.601 479.503 900.533 450.329 863.679C415.922 820.42 372.948 763.756 333.285 703.885C344.729 700.594 355.96 695.873 366.737 689.651L582.068 565.33C653.387 524.154 677.823 432.959 636.647 361.64C595.471 290.32 504.275 265.884 432.956 307.061L217.625 431.382C217.416 431.503 217.208 431.626 217 431.748C220.179 269.028 353.113 138 516.825 138ZM359.471 359.46C376.632 346.168 401.265 348.991 414.976 365.819L467.059 429.746C477.19 442.182 485.261 456.162 490.965 471.154L520.285 548.224C528.004 568.512 518.133 591.254 498.041 599.471L421.119 630.928C401.257 639.05 378.524 630.053 369.601 610.537L340.471 546.824C336.528 538.2 331.775 529.97 326.278 522.243L285.667 465.16C273.227 447.675 276.802 423.488 293.768 410.348L359.471 359.46ZM633.264 422.243C638.832 421.272 644.133 424.998 645.104 430.566C634.628 432.394 634.63 430.95 645.105 430.57L645.106 430.573C645.107 430.576 645.107 430.58 645.107 430.583C645.108 430.589 645.109 430.596 645.11 430.604C645.113 430.619 645.117 430.64 645.121 430.663C645.129 430.709 645.139 430.77 645.151 430.844C645.176 430.993 645.21 431.2 645.249 431.458C645.328 431.974 645.431 432.702 645.546 433.608C645.775 435.419 646.049 437.966 646.238 440.995C646.611 446.977 646.679 455.201 645.265 463.489C643.658 472.906 640.877 480.673 638.485 486.115C637.286 488.844 636.173 491.011 635.335 492.538C634.916 493.302 634.563 493.909 634.302 494.346C634.171 494.564 634.062 494.742 633.979 494.875C633.937 494.941 633.903 494.997 633.875 495.042C633.861 495.064 633.848 495.085 633.837 495.102C633.832 495.11 633.826 495.118 633.821 495.125C633.819 495.128 633.817 495.132 633.815 495.135L633.812 495.14C633.725 495.096 619.496 485.902 633.81 495.145C630.743 499.893 624.407 501.257 619.658 498.19C615.059 495.221 613.635 489.184 616.335 484.493L616.609 484.044C616.634 484.005 616.677 483.932 616.739 483.828C616.876 483.599 617.101 483.215 617.391 482.688C617.972 481.629 618.813 480 619.745 477.878C621.617 473.619 623.819 467.473 625.086 460.046C626.135 453.897 626.126 447.399 625.807 442.27C625.649 439.744 625.423 437.636 625.238 436.183C625.146 435.458 625.066 434.9 625.011 434.539C624.983 434.359 624.963 434.228 624.95 434.151L624.938 434.082C623.969 428.514 627.696 423.215 633.264 422.243ZM515.444 296.802C515.491 296.802 515.553 296.802 515.628 296.803C515.779 296.804 515.988 296.805 516.249 296.81C516.771 296.818 517.507 296.837 518.421 296.875C520.244 296.951 522.8 297.106 525.818 297.426C531.778 298.057 539.898 299.363 547.834 302.141C556.85 305.297 564.045 309.334 569.011 312.601C571.501 314.239 573.453 315.698 574.818 316.779C575.502 317.32 576.041 317.769 576.428 318.1C576.621 318.265 576.778 318.402 576.896 318.506C576.954 318.558 577.003 318.602 577.043 318.638C577.063 318.655 577.08 318.672 577.095 318.686C577.102 318.692 577.11 318.699 577.116 318.705C577.119 318.708 577.122 318.71 577.125 318.712L577.129 318.716C577.1 318.763 565.616 331.304 577.133 318.719C581.303 322.535 581.59 329.01 577.774 333.181C573.965 337.343 567.508 337.635 563.337 333.841V333.842C563.342 333.847 563.347 333.851 563.348 333.852C563.348 333.852 563.34 333.846 563.326 333.834C563.295 333.806 563.227 333.747 563.126 333.66C562.923 333.487 562.582 333.201 562.11 332.827C561.164 332.078 559.697 330.977 557.761 329.703C553.874 327.146 548.182 323.95 541.07 321.461C535.183 319.4 528.775 318.324 523.664 317.783C521.148 317.517 519.032 317.388 517.568 317.327C516.838 317.297 516.274 317.283 515.909 317.277C515.727 317.274 515.595 317.273 515.517 317.272H515.446C509.795 317.299 505.193 312.74 505.164 307.089C505.136 301.436 509.694 296.831 515.347 296.803C515.4 307.437 513.977 307.194 515.352 296.803L515.354 296.802C515.357 296.802 515.36 296.803 515.362 296.803C515.368 296.803 515.377 296.802 515.385 296.802C515.401 296.802 515.421 296.802 515.444 296.802Z" fill="url(#paint0_linear_311_925)" fill-opacity="0.9"/>
</g>
<defs>
<filter id="filter0_ii_311_925" x="217" y="134" width="600" height="765.872" filterUnits="userSpaceOnUse" color-interpolation-filters="sRGB">
<feFlood flood-opacity="0" result="BackgroundImageFix"/>
<feBlend mode="normal" in="SourceGraphic" in2="BackgroundImageFix" result="shape"/>
<feColorMatrix in="SourceAlpha" type="matrix" values="0 0 0 0 0 0 0 0 0 0 0 0 0 0 0 0 0 0 127 0" result="hardAlpha"/>
<feOffset dy="5"/>
<feGaussianBlur stdDeviation="2"/>
<feComposite in2="hardAlpha" operator="arithmetic" k2="-1" k3="1"/>
<feColorMatrix type="matrix" values="0 0 0 0 1 0 0 0 0 1 0 0 0 0 1 0 0 0 0.65 0"/>
<feBlend mode="normal" in2="shape" result="effect1_innerShadow_311_925"/>
<feColorMatrix in="SourceAlpha" type="matrix" values="0 0 0 0 0 0 0 0 0 0 0 0 0 0 0 0 0 0 127 0" result="hardAlpha"/>
<feOffset dy="-6"/>
<feGaussianBlur stdDeviation="2"/>
<feComposite in2="hardAlpha" operator="arithmetic" k2="-1" k3="1"/>
<feColorMatrix type="matrix" values="0 0 0 0 0 0 0 0 0 0 0 0 0 0 0 0 0 0 0.25 0"/>
<feBlend mode="normal" in2="effect1_innerShadow_311_925" result="effect2_innerShadow_311_925"/>
</filter>
<linearGradient id="paint0_linear_311_925" x1="326" y1="138" x2="654" y2="931" gradientUnits="userSpaceOnUse">
<stop stop-color="#005FDC"/>
<stop offset="0.976889" stop-color="#0D4FA6"/>
</linearGradient>
</defs>
</svg>
